# xmcd
#
# Track frame offsets: 
#        150
#        22641
#        40831
#        62019
#        92002
#        103664
#        127627
#        153827
#        171693
#        194153
#
# Disc length: 3040 seconds
#
# Revision: 1
# Processed by: cddbd v1.5.2PL0 Copyright (c) Steve Scherf et al.
# Submitted via: ExactAudioCopy v1.0b3
#
DISCID=790bde0a
DTITLE=Dark Moor - Ancestral Romance
DYEAR=2010
DGENRE=Symphonic Power Metal
TTITLE0=Gadir
TTITLE1=Love From The Stone
TTITLE2=Alaric de Marnac
TTITLE3=Mio Cid
TTITLE4=Just Rock
TTITLE5=Tilt At Windmills
TTITLE6=Canción del Pirata
TTITLE7=Ritual Fire Dance
TTITLE8=Ah! Wretched Me
TTITLE9=A Music In My Soul
EXTD=
EXTT0=
EXTT1=
EXTT2=
EXTT3=
EXTT4=
EXTT5=
EXTT6=
EXTT7=
EXTT8=
EXTT9=
PLAYORDER=
